<svg width="84" height="82" viewBox="0 0 84 82" fill="none" xmlns="http://www.w3.org/2000/svg">
<path d="M37.75 0.895086C18.5833 2.97842 3.16662 18.3951 1.08329 37.1451C-1.00004 56.7284 10.25 74.2284 27.3333 80.8951C28.5833 81.3117 29.8333 80.4784 29.8333 78.8117V72.1451C29.8333 72.1451 28.1666 72.5617 26.0833 72.5617C20.25 72.5617 17.75 67.5617 17.3333 64.6451C16.9166 62.9784 16.0833 61.7284 14.8333 60.4784C13.5833 60.0617 13.1666 60.0618 13.1666 59.6451C13.1666 58.8118 14.4166 58.8118 14.8333 58.8118C17.3333 58.8118 19.4166 61.7284 20.25 62.9784C22.3333 66.3118 24.8333 67.1451 26.0833 67.1451C27.75 67.1451 29 66.7284 29.8333 66.3117C30.25 63.3951 31.5 60.4784 34 58.8118C24.4166 56.7284 17.3333 51.3118 17.3333 42.1451C17.3333 37.5618 19.4166 32.9784 22.3333 29.6451C21.9166 28.8118 21.5 26.7284 21.5 23.8118C21.5 22.1451 21.5 19.6451 22.75 17.1451C22.75 17.1451 28.5833 17.1451 34.4166 22.5618C36.5 21.7284 39.4166 21.3118 42.3333 21.3118C45.25 21.3118 48.1666 21.7284 50.6666 22.5618C56.0833 17.1451 62.3333 17.1451 62.3333 17.1451C63.1666 19.6451 63.1666 22.1451 63.1666 23.8118C63.1666 27.1451 62.75 28.8118 62.3333 29.6451C65.25 32.9784 67.3333 37.1451 67.3333 42.1451C67.3333 51.3118 60.25 56.7284 50.6666 58.8118C53.1666 60.8951 54.8333 64.6451 54.8333 68.3951V79.2284C54.8333 80.4784 56.0833 81.7284 57.75 81.3117C73.1666 75.0617 84 60.0618 84 42.5618C84 17.5618 62.75 -2.02158 37.75 0.895086Z" fill="black"/>
</svg>
