<svg width="140" height="40" viewBox="0 0 140 40" fill="none" xmlns="http://www.w3.org/2000/svg">
<g clip-path="url(#clip0_312_328)">
<path d="M39.6529 14.5765C39.6529 17.9721 38.124 21.0126 35.7166 23.0439C36.3161 21.9158 36.6558 20.6278 36.6558 19.2607C36.6558 14.8601 33.1373 11.2807 28.757 11.1855C28.6902 11.1814 28.6302 11.1814 28.5816 11.1814H28.5765H28.5713C28.5206 11.1814 28.4572 11.1814 28.3868 11.1861C26.5977 11.285 25.1824 12.7655 25.1824 14.5755V29.0461C25.1824 33.3955 21.7846 36.9549 17.5 37.2134V14.5765C17.5 8.46014 22.4601 3.5 28.5765 3.5C34.6928 3.5 39.6529 8.46014 39.6529 14.5765Z" fill="white" stroke="black"/>
<path d="M30.2691 12.8836C31.2041 13.8186 31.2041 15.3344 30.2691 16.2694C29.3342 17.2043 27.8183 17.2043 26.8834 16.2694C25.9484 15.3344 25.9484 13.8186 26.8834 12.8836C27.8183 11.9487 29.3342 11.9487 30.2691 12.8836Z" fill="white" stroke="black"/>
</g>
<mask id="path-3-outside-1_312_328" maskUnits="userSpaceOnUse" x="51.9059" y="11" width="87" height="18" fill="black">
<rect fill="white" x="51.9059" y="11" width="87" height="18"/>
<path d="M56.4259 22.82V19.98H59.0459C59.5526 19.98 59.9859 19.88 60.3459 19.68C60.7192 19.48 61.0059 19.2 61.2059 18.84C61.4059 18.4667 61.5059 18.04 61.5059 17.56C61.5059 17.0533 61.4059 16.62 61.2059 16.26C61.0059 15.8867 60.7192 15.6067 60.3459 15.42C59.9859 15.22 59.5526 15.12 59.0459 15.12H56.4259V12.28H58.8859C60.1259 12.28 61.1859 12.4867 62.0659 12.9C62.9592 13.3133 63.6392 13.9 64.1059 14.66C64.5859 15.42 64.8259 16.3333 64.8259 17.4V17.72C64.8259 18.76 64.5859 19.6667 64.1059 20.44C63.6392 21.2 62.9592 21.7867 62.0659 22.2C61.1859 22.6133 60.1259 22.82 58.8859 22.82H56.4259ZM53.5459 27V12.28H56.8259V27H53.5459ZM71.189 27.38C70.2557 27.38 69.429 27.22 68.709 26.9C68.0023 26.58 67.409 26.1533 66.929 25.62C66.4623 25.0733 66.1023 24.4667 65.849 23.8C65.609 23.12 65.489 22.4267 65.489 21.72V21.32C65.489 20.5867 65.609 19.8867 65.849 19.22C66.1023 18.54 66.4623 17.9333 66.929 17.4C67.3957 16.8667 67.9757 16.4467 68.669 16.14C69.3757 15.82 70.1757 15.66 71.069 15.66C72.2423 15.66 73.229 15.9267 74.029 16.46C74.8423 16.98 75.4623 17.6667 75.889 18.52C76.3157 19.36 76.529 20.28 76.529 21.28V22.36H66.829V20.54H74.589L73.549 21.38C73.549 20.7267 73.4557 20.1667 73.269 19.7C73.0823 19.2333 72.8023 18.88 72.429 18.64C72.069 18.3867 71.6157 18.26 71.069 18.26C70.509 18.26 70.0357 18.3867 69.649 18.64C69.2623 18.8933 68.969 19.2667 68.769 19.76C68.569 20.24 68.469 20.8333 68.469 21.54C68.469 22.1933 68.5623 22.7667 68.749 23.26C68.9357 23.74 69.229 24.1133 69.629 24.38C70.029 24.6467 70.549 24.78 71.189 24.78C71.7757 24.78 72.2557 24.6667 72.629 24.44C73.0023 24.2133 73.2557 23.9333 73.389 23.6H76.329C76.169 24.3333 75.8557 24.9867 75.389 25.56C74.9223 26.1333 74.3357 26.58 73.629 26.9C72.9223 27.22 72.109 27.38 71.189 27.38ZM78.2495 27V16.04H80.7895V20.74H80.7295C80.7295 19.1933 81.0561 18 81.7095 17.16C82.3761 16.32 83.3361 15.9 84.5895 15.9H85.0095V18.66H84.2095C83.3295 18.66 82.6495 18.9 82.1695 19.38C81.6895 19.8467 81.4495 20.5267 81.4495 21.42V27H78.2495ZM90.4274 27.34C88.8674 27.34 87.6474 27.02 86.7674 26.38C85.8874 25.74 85.4208 24.84 85.3674 23.68H88.2074C88.2608 24.0267 88.4674 24.34 88.8274 24.62C89.2008 24.8867 89.7541 25.02 90.4874 25.02C91.0474 25.02 91.5074 24.9267 91.8674 24.74C92.2408 24.54 92.4274 24.26 92.4274 23.9C92.4274 23.58 92.2874 23.3267 92.0074 23.14C91.7274 22.94 91.2274 22.8 90.5074 22.72L89.6474 22.64C88.3274 22.5067 87.3341 22.14 86.6674 21.54C86.0141 20.94 85.6874 20.1733 85.6874 19.24C85.6874 18.4667 85.8808 17.82 86.2674 17.3C86.6541 16.78 87.1874 16.3867 87.8674 16.12C88.5608 15.8533 89.3474 15.72 90.2274 15.72C91.6408 15.72 92.7808 16.0333 93.6474 16.66C94.5141 17.2733 94.9674 18.1667 95.0074 19.34H92.1674C92.1141 18.98 91.9274 18.68 91.6074 18.44C91.2874 18.1867 90.8141 18.06 90.1874 18.06C89.6941 18.06 89.3008 18.1533 89.0074 18.34C88.7141 18.5267 88.5674 18.78 88.5674 19.1C88.5674 19.4067 88.6941 19.64 88.9474 19.8C89.2008 19.96 89.6141 20.0733 90.1874 20.14L91.0474 20.22C92.3941 20.3667 93.4408 20.74 94.1874 21.34C94.9341 21.94 95.3074 22.7467 95.3074 23.76C95.3074 24.4933 95.1074 25.1333 94.7074 25.68C94.3074 26.2133 93.7408 26.6267 93.0074 26.92C92.2741 27.2 91.4141 27.34 90.4274 27.34ZM102.321 27.38C101.361 27.38 100.507 27.2333 99.7607 26.94C99.0141 26.6333 98.3807 26.22 97.8607 25.7C97.3541 25.18 96.9674 24.5867 96.7007 23.92C96.4341 23.24 96.3007 22.5267 96.3007 21.78V21.32C96.3007 20.56 96.4341 19.84 96.7007 19.16C96.9807 18.4667 97.3807 17.86 97.9007 17.34C98.4341 16.82 99.0741 16.4133 99.8207 16.12C100.567 15.8133 101.401 15.66 102.321 15.66C103.267 15.66 104.107 15.8133 104.841 16.12C105.587 16.4133 106.221 16.82 106.741 17.34C107.261 17.86 107.661 18.4667 107.941 19.16C108.221 19.84 108.361 20.56 108.361 21.32V21.78C108.361 22.5267 108.227 23.24 107.961 23.92C107.694 24.5867 107.301 25.18 106.781 25.7C106.274 26.22 105.647 26.6333 104.901 26.94C104.154 27.2333 103.294 27.38 102.321 27.38ZM102.321 24.68C102.947 24.68 103.467 24.5467 103.881 24.28C104.294 24.0133 104.607 23.64 104.821 23.16C105.047 22.68 105.161 22.1467 105.161 21.56C105.161 20.9333 105.047 20.3867 104.821 19.92C104.594 19.44 104.267 19.06 103.841 18.78C103.427 18.5 102.921 18.36 102.321 18.36C101.734 18.36 101.227 18.5 100.801 18.78C100.374 19.06 100.047 19.44 99.8207 19.92C99.6074 20.3867 99.5007 20.9333 99.5007 21.56C99.5007 22.1467 99.6074 22.68 99.8207 23.16C100.034 23.64 100.354 24.0133 100.781 24.28C101.207 24.5467 101.721 24.68 102.321 24.68ZM110.194 27V16.04H112.734V20.74H112.554C112.554 19.62 112.694 18.6867 112.974 17.94C113.267 17.1933 113.707 16.6333 114.294 16.26C114.881 15.8867 115.594 15.7 116.434 15.7H116.574C117.854 15.7 118.827 16.12 119.494 16.96C120.174 17.7867 120.514 19.0467 120.514 20.74V27H117.314V20.56C117.314 19.9733 117.141 19.4933 116.794 19.12C116.447 18.7467 115.981 18.56 115.394 18.56C114.794 18.56 114.307 18.7533 113.934 19.14C113.574 19.5133 113.394 20.0067 113.394 20.62V27H110.194ZM129.461 27V23.76H128.921V20.24C128.921 19.68 128.788 19.26 128.521 18.98C128.254 18.7 127.828 18.56 127.241 18.56C126.948 18.56 126.561 18.5667 126.081 18.58C125.601 18.5933 125.108 18.6133 124.601 18.64C124.094 18.6667 123.634 18.6933 123.221 18.72V16.02C123.528 15.9933 123.888 15.9667 124.301 15.94C124.714 15.9133 125.141 15.8933 125.581 15.88C126.021 15.8667 126.434 15.86 126.821 15.86C127.941 15.86 128.881 16.02 129.641 16.34C130.414 16.66 131.001 17.1467 131.401 17.8C131.801 18.44 132.001 19.2667 132.001 20.28V27H129.461ZM125.961 27.28C125.174 27.28 124.481 27.14 123.881 26.86C123.294 26.58 122.834 26.18 122.501 25.66C122.168 25.1267 122.001 24.4933 122.001 23.76C122.001 22.96 122.208 22.3067 122.621 21.8C123.034 21.28 123.614 20.9 124.361 20.66C125.108 20.4067 125.968 20.28 126.941 20.28H129.281V22.06H126.921C126.361 22.06 125.928 22.2 125.621 22.48C125.328 22.7467 125.181 23.1133 125.181 23.58C125.181 24.02 125.328 24.38 125.621 24.66C125.928 24.9267 126.361 25.06 126.921 25.06C127.281 25.06 127.601 25 127.881 24.88C128.174 24.7467 128.414 24.5267 128.601 24.22C128.788 23.9133 128.894 23.4867 128.921 22.94L129.681 23.74C129.614 24.5 129.428 25.14 129.121 25.66C128.828 26.18 128.414 26.58 127.881 26.86C127.361 27.14 126.721 27.28 125.961 27.28ZM134.456 27V12.4H137.676V27H134.456ZM133.156 14.76V12.4H137.676V14.76H133.156Z"/>
</mask>
<path d="M56.4259 22.82V19.98H59.0459C59.5526 19.98 59.9859 19.88 60.3459 19.68C60.7192 19.48 61.0059 19.2 61.2059 18.84C61.4059 18.4667 61.5059 18.04 61.5059 17.56C61.5059 17.0533 61.4059 16.62 61.2059 16.26C61.0059 15.8867 60.7192 15.6067 60.3459 15.42C59.9859 15.22 59.5526 15.12 59.0459 15.12H56.4259V12.28H58.8859C60.1259 12.28 61.1859 12.4867 62.0659 12.9C62.9592 13.3133 63.6392 13.9 64.1059 14.66C64.5859 15.42 64.8259 16.3333 64.8259 17.4V17.72C64.8259 18.76 64.5859 19.6667 64.1059 20.44C63.6392 21.2 62.9592 21.7867 62.0659 22.2C61.1859 22.6133 60.1259 22.82 58.8859 22.82H56.4259ZM53.5459 27V12.28H56.8259V27H53.5459ZM71.189 27.38C70.2557 27.38 69.429 27.22 68.709 26.9C68.0023 26.58 67.409 26.1533 66.929 25.62C66.4623 25.0733 66.1023 24.4667 65.849 23.8C65.609 23.12 65.489 22.4267 65.489 21.72V21.32C65.489 20.5867 65.609 19.8867 65.849 19.22C66.1023 18.54 66.4623 17.9333 66.929 17.4C67.3957 16.8667 67.9757 16.4467 68.669 16.14C69.3757 15.82 70.1757 15.66 71.069 15.66C72.2423 15.66 73.229 15.9267 74.029 16.46C74.8423 16.98 75.4623 17.6667 75.889 18.52C76.3157 19.36 76.529 20.28 76.529 21.28V22.36H66.829V20.54H74.589L73.549 21.38C73.549 20.7267 73.4557 20.1667 73.269 19.7C73.0823 19.2333 72.8023 18.88 72.429 18.64C72.069 18.3867 71.6157 18.26 71.069 18.26C70.509 18.26 70.0357 18.3867 69.649 18.64C69.2623 18.8933 68.969 19.2667 68.769 19.76C68.569 20.24 68.469 20.8333 68.469 21.54C68.469 22.1933 68.5623 22.7667 68.749 23.26C68.9357 23.74 69.229 24.1133 69.629 24.38C70.029 24.6467 70.549 24.78 71.189 24.78C71.7757 24.78 72.2557 24.6667 72.629 24.44C73.0023 24.2133 73.2557 23.9333 73.389 23.6H76.329C76.169 24.3333 75.8557 24.9867 75.389 25.56C74.9223 26.1333 74.3357 26.58 73.629 26.9C72.9223 27.22 72.109 27.38 71.189 27.38ZM78.2495 27V16.04H80.7895V20.74H80.7295C80.7295 19.1933 81.0561 18 81.7095 17.16C82.3761 16.32 83.3361 15.9 84.5895 15.9H85.0095V18.66H84.2095C83.3295 18.66 82.6495 18.9 82.1695 19.38C81.6895 19.8467 81.4495 20.5267 81.4495 21.42V27H78.2495ZM90.4274 27.34C88.8674 27.34 87.6474 27.02 86.7674 26.38C85.8874 25.74 85.4208 24.84 85.3674 23.68H88.2074C88.2608 24.0267 88.4674 24.34 88.8274 24.62C89.2008 24.8867 89.7541 25.02 90.4874 25.02C91.0474 25.02 91.5074 24.9267 91.8674 24.74C92.2408 24.54 92.4274 24.26 92.4274 23.9C92.4274 23.58 92.2874 23.3267 92.0074 23.14C91.7274 22.94 91.2274 22.8 90.5074 22.72L89.6474 22.64C88.3274 22.5067 87.3341 22.14 86.6674 21.54C86.0141 20.94 85.6874 20.1733 85.6874 19.24C85.6874 18.4667 85.8808 17.82 86.2674 17.3C86.6541 16.78 87.1874 16.3867 87.8674 16.12C88.5608 15.8533 89.3474 15.72 90.2274 15.72C91.6408 15.72 92.7808 16.0333 93.6474 16.66C94.5141 17.2733 94.9674 18.1667 95.0074 19.34H92.1674C92.1141 18.98 91.9274 18.68 91.6074 18.44C91.2874 18.1867 90.8141 18.06 90.1874 18.06C89.6941 18.06 89.3008 18.1533 89.0074 18.34C88.7141 18.5267 88.5674 18.78 88.5674 19.1C88.5674 19.4067 88.6941 19.64 88.9474 19.8C89.2008 19.96 89.6141 20.0733 90.1874 20.14L91.0474 20.22C92.3941 20.3667 93.4408 20.74 94.1874 21.34C94.9341 21.94 95.3074 22.7467 95.3074 23.76C95.3074 24.4933 95.1074 25.1333 94.7074 25.68C94.3074 26.2133 93.7408 26.6267 93.0074 26.92C92.2741 27.2 91.4141 27.34 90.4274 27.34ZM102.321 27.38C101.361 27.38 100.507 27.2333 99.7607 26.94C99.0141 26.6333 98.3807 26.22 97.8607 25.7C97.3541 25.18 96.9674 24.5867 96.7007 23.92C96.4341 23.24 96.3007 22.5267 96.3007 21.78V21.32C96.3007 20.56 96.4341 19.84 96.7007 19.16C96.9807 18.4667 97.3807 17.86 97.9007 17.34C98.4341 16.82 99.0741 16.4133 99.8207 16.12C100.567 15.8133 101.401 15.66 102.321 15.66C103.267 15.66 104.107 15.8133 104.841 16.12C105.587 16.4133 106.221 16.82 106.741 17.34C107.261 17.86 107.661 18.4667 107.941 19.16C108.221 19.84 108.361 20.56 108.361 21.32V21.78C108.361 22.5267 108.227 23.24 107.961 23.92C107.694 24.5867 107.301 25.18 106.781 25.7C106.274 26.22 105.647 26.6333 104.901 26.94C104.154 27.2333 103.294 27.38 102.321 27.38ZM102.321 24.68C102.947 24.68 103.467 24.5467 103.881 24.28C104.294 24.0133 104.607 23.64 104.821 23.16C105.047 22.68 105.161 22.1467 105.161 21.56C105.161 20.9333 105.047 20.3867 104.821 19.92C104.594 19.44 104.267 19.06 103.841 18.78C103.427 18.5 102.921 18.36 102.321 18.36C101.734 18.36 101.227 18.5 100.801 18.78C100.374 19.06 100.047 19.44 99.8207 19.92C99.6074 20.3867 99.5007 20.9333 99.5007 21.56C99.5007 22.1467 99.6074 22.68 99.8207 23.16C100.034 23.64 100.354 24.0133 100.781 24.28C101.207 24.5467 101.721 24.68 102.321 24.68ZM110.194 27V16.04H112.734V20.74H112.554C112.554 19.62 112.694 18.6867 112.974 17.94C113.267 17.1933 113.707 16.6333 114.294 16.26C114.881 15.8867 115.594 15.7 116.434 15.7H116.574C117.854 15.7 118.827 16.12 119.494 16.96C120.174 17.7867 120.514 19.0467 120.514 20.74V27H117.314V20.56C117.314 19.9733 117.141 19.4933 116.794 19.12C116.447 18.7467 115.981 18.56 115.394 18.56C114.794 18.56 114.307 18.7533 113.934 19.14C113.574 19.5133 113.394 20.0067 113.394 20.62V27H110.194ZM129.461 27V23.76H128.921V20.24C128.921 19.68 128.788 19.26 128.521 18.98C128.254 18.7 127.828 18.56 127.241 18.56C126.948 18.56 126.561 18.5667 126.081 18.58C125.601 18.5933 125.108 18.6133 124.601 18.64C124.094 18.6667 123.634 18.6933 123.221 18.72V16.02C123.528 15.9933 123.888 15.9667 124.301 15.94C124.714 15.9133 125.141 15.8933 125.581 15.88C126.021 15.8667 126.434 15.86 126.821 15.86C127.941 15.86 128.881 16.02 129.641 16.34C130.414 16.66 131.001 17.1467 131.401 17.8C131.801 18.44 132.001 19.2667 132.001 20.28V27H129.461ZM125.961 27.28C125.174 27.28 124.481 27.14 123.881 26.86C123.294 26.58 122.834 26.18 122.501 25.66C122.168 25.1267 122.001 24.4933 122.001 23.76C122.001 22.96 122.208 22.3067 122.621 21.8C123.034 21.28 123.614 20.9 124.361 20.66C125.108 20.4067 125.968 20.28 126.941 20.28H129.281V22.06H126.921C126.361 22.06 125.928 22.2 125.621 22.48C125.328 22.7467 125.181 23.1133 125.181 23.58C125.181 24.02 125.328 24.38 125.621 24.66C125.928 24.9267 126.361 25.06 126.921 25.06C127.281 25.06 127.601 25 127.881 24.88C128.174 24.7467 128.414 24.5267 128.601 24.22C128.788 23.9133 128.894 23.4867 128.921 22.94L129.681 23.74C129.614 24.5 129.428 25.14 129.121 25.66C128.828 26.18 128.414 26.58 127.881 26.86C127.361 27.14 126.721 27.28 125.961 27.28ZM134.456 27V12.4H137.676V27H134.456ZM133.156 14.76V12.4H137.676V14.76H133.156Z" fill="white"/>
<path d="M56.4259 22.82H55.4259V23.82H56.4259V22.82ZM56.4259 19.98V18.98H55.4259V19.98H56.4259ZM60.3459 19.68L59.8737 18.7985L59.8669 18.8021L59.8602 18.8058L60.3459 19.68ZM61.2059 18.84L62.08 19.3256L62.0838 19.319L62.0874 19.3122L61.2059 18.84ZM61.2059 16.26L60.3244 16.7322L60.328 16.739L60.3317 16.7456L61.2059 16.26ZM60.3459 15.42L59.8602 16.2942L59.8792 16.3047L59.8987 16.3144L60.3459 15.42ZM56.4259 15.12H55.4259V16.12H56.4259V15.12ZM56.4259 12.28V11.28H55.4259V12.28H56.4259ZM62.0659 12.9L61.6407 13.8051L61.646 13.8076L62.0659 12.9ZM64.1059 14.66L63.2536 15.1833L63.2604 15.194L64.1059 14.66ZM64.1059 20.44L63.2562 19.9126L63.2537 19.9167L64.1059 20.44ZM62.0659 22.2L61.646 21.2924L61.6407 21.2949L62.0659 22.2ZM53.5459 27H52.5459V28H53.5459V27ZM53.5459 12.28V11.28H52.5459V12.28H53.5459ZM56.8259 12.28H57.8259V11.28H56.8259V12.28ZM56.8259 27V28H57.8259V27H56.8259ZM57.4259 22.82V19.98H55.4259V22.82H57.4259ZM56.4259 20.98H59.0459V18.98H56.4259V20.98ZM59.0459 20.98C59.6838 20.98 60.2924 20.8537 60.8315 20.5542L59.8602 18.8058C59.6793 18.9063 59.4213 18.98 59.0459 18.98V20.98ZM60.8181 20.5615C61.3555 20.2736 61.7841 19.8584 62.08 19.3256L60.3317 18.3544C60.2277 18.5416 60.0829 18.6864 59.8737 18.7985L60.8181 20.5615ZM62.0874 19.3122C62.375 18.7752 62.5059 18.1825 62.5059 17.56H60.5059C60.5059 17.8975 60.4367 18.1581 60.3244 18.3678L62.0874 19.3122ZM62.5059 17.56C62.5059 16.9221 62.3795 16.3135 62.08 15.7744L60.3317 16.7456C60.4322 16.9265 60.5059 17.1845 60.5059 17.56H62.5059ZM62.0874 15.7878C61.7913 15.2351 61.3542 14.8061 60.7931 14.5256L59.8987 16.3144C60.0842 16.4072 60.2205 16.5383 60.3244 16.7322L62.0874 15.7878ZM60.8315 14.5458C60.2924 14.2463 59.6838 14.12 59.0459 14.12V16.12C59.4213 16.12 59.6793 16.1937 59.8602 16.2942L60.8315 14.5458ZM59.0459 14.12H56.4259V16.12H59.0459V14.12ZM57.4259 15.12V12.28H55.4259V15.12H57.4259ZM56.4259 13.28H58.8859V11.28H56.4259V13.28ZM58.8859 13.28C60.018 13.28 60.9251 13.469 61.6407 13.8051L62.491 11.9949C61.4466 11.5043 60.2337 11.28 58.8859 11.28V13.28ZM61.646 13.8076C62.3798 14.1471 62.9007 14.6084 63.2537 15.1833L64.9581 14.1367C64.3777 13.1916 63.5386 12.4796 62.4858 11.9924L61.646 13.8076ZM63.2604 15.194C63.6219 15.7664 63.8259 16.4866 63.8259 17.4H65.8259C65.8259 16.18 65.5498 15.0736 64.9514 14.126L63.2604 15.194ZM63.8259 17.4V17.72H65.8259V17.4H63.8259ZM63.8259 17.72C63.8259 18.6008 63.6246 19.3193 63.2562 19.9126L64.9555 20.9674C65.5472 20.0141 65.8259 18.9192 65.8259 17.72H63.8259ZM63.2537 19.9167C62.9007 20.4916 62.3798 20.9529 61.646 21.2924L62.4858 23.1076C63.5386 22.6204 64.3777 21.9084 64.9581 20.9633L63.2537 19.9167ZM61.6407 21.2949C60.9251 21.631 60.018 21.82 58.8859 21.82V23.82C60.2337 23.82 61.4466 23.5957 62.491 23.1051L61.6407 21.2949ZM58.8859 21.82H56.4259V23.82H58.8859V21.82ZM54.5459 27V12.28H52.5459V27H54.5459ZM53.5459 13.28H56.8259V11.28H53.5459V13.28ZM55.8259 12.28V27H57.8259V12.28H55.8259ZM56.8259 26H53.5459V28H56.8259V26ZM68.709 26.9L68.2965 27.811L68.3029 27.8138L68.709 26.9ZM66.929 25.62L66.1684 26.2693L66.177 26.2792L66.1857 26.289L66.929 25.62ZM65.849 23.8L64.906 24.1328L64.91 24.1441L64.9142 24.1552L65.849 23.8ZM65.849 19.22L64.9119 18.8709L64.9081 18.8813L65.849 19.22ZM66.929 17.4L67.6816 18.0585L67.6816 18.0585L66.929 17.4ZM68.669 16.14L69.0735 17.0546L69.0815 17.051L68.669 16.14ZM74.029 16.46L73.4743 17.292L73.4823 17.2974L73.4903 17.3025L74.029 16.46ZM75.889 18.52L74.9946 18.9672L74.9974 18.9729L75.889 18.52ZM76.529 22.36V23.36H77.529V22.36H76.529ZM66.829 22.36H65.829V23.36H66.829V22.36ZM66.829 20.54V19.54H65.829V20.54H66.829ZM74.589 20.54L75.2173 21.3179L77.4186 19.54H74.589V20.54ZM73.549 21.38H72.549V23.4731L74.1773 22.1579L73.549 21.38ZM72.429 18.64L71.8535 19.4578L71.8706 19.4699L71.8883 19.4812L72.429 18.64ZM69.649 18.64L69.101 17.8035L69.101 17.8035L69.649 18.64ZM68.769 19.76L69.6921 20.1446L69.6957 20.1357L68.769 19.76ZM68.749 23.26L67.8137 23.6139L67.817 23.6224L68.749 23.26ZM69.629 24.38L69.0743 25.2121L69.0743 25.2121L69.629 24.38ZM72.629 24.44L73.148 25.2948L73.148 25.2948L72.629 24.44ZM73.389 23.6V22.6H72.712L72.4605 23.2286L73.389 23.6ZM76.329 23.6L77.306 23.8132L77.5707 22.6H76.329V23.6ZM75.389 25.56L76.1646 26.1913L76.1646 26.1913L75.389 25.56ZM73.629 26.9L73.2165 25.989L73.629 26.9ZM71.189 26.38C70.3701 26.38 69.6859 26.2399 69.1151 25.9862L68.3029 27.8138C69.1721 28.2001 70.1412 28.38 71.189 28.38V26.38ZM69.1215 25.989C68.5303 25.7213 68.0526 25.3736 67.6723 24.951L66.1857 26.289C66.7654 26.933 67.4744 27.4387 68.2965 27.811L69.1215 25.989ZM67.6896 24.9707C67.2968 24.5107 66.996 24.0033 66.7838 23.4448L64.9142 24.1552C65.2087 24.93 65.6279 25.636 66.1684 26.2693L67.6896 24.9707ZM66.792 23.4672C66.5889 22.8919 66.489 22.311 66.489 21.72H64.489C64.489 22.5424 64.6291 23.3481 64.906 24.1328L66.792 23.4672ZM66.489 21.72V21.32H64.489V21.72H66.489ZM66.489 21.32C66.489 20.698 66.5904 20.113 66.7899 19.5587L64.9081 18.8813C64.6276 19.6604 64.489 20.4753 64.489 21.32H66.489ZM66.7861 19.5691C66.9982 18.9998 67.2966 18.4985 67.6816 18.0585L66.1764 16.7415C65.6281 17.3681 65.2065 18.0802 64.9119 18.8709L66.7861 19.5691ZM67.6816 18.0585C68.0457 17.6424 68.504 17.3064 69.0735 17.0545L68.2645 15.2255C67.4473 15.5869 66.7457 16.0909 66.1764 16.7415L67.6816 18.0585ZM69.0815 17.051C69.6404 16.7979 70.2965 16.66 71.069 16.66V14.66C70.0549 14.66 69.111 14.8421 68.2565 15.229L69.0815 17.051ZM71.069 16.66C72.0888 16.66 72.8717 16.8903 73.4743 17.292L74.5837 15.6279C73.5864 14.963 72.3959 14.66 71.069 14.66V16.66ZM73.4903 17.3025C74.1535 17.7265 74.6497 18.2773 74.9946 18.9672L76.7834 18.0728C76.275 17.056 75.5312 16.2335 74.5677 15.6175L73.4903 17.3025ZM74.9974 18.9729C75.3485 19.664 75.529 20.4275 75.529 21.28H77.529C77.529 20.1325 77.2829 19.056 76.7806 18.0671L74.9974 18.9729ZM75.529 21.28V22.36H77.529V21.28H75.529ZM76.529 21.36H66.829V23.36H76.529V21.36ZM67.829 22.36V20.54H65.829V22.36H67.829ZM66.829 21.54H74.589V19.54H66.829V21.54ZM73.9607 19.7621L72.9207 20.6021L74.1773 22.1579L75.2173 21.3179L73.9607 19.7621ZM74.549 21.38C74.549 20.6358 74.4432 19.943 74.1975 19.3286L72.3405 20.0714C72.4681 20.3904 72.549 20.8176 72.549 21.38H74.549ZM74.1975 19.3286C73.9442 18.6955 73.5407 18.1659 72.9698 17.7988L71.8883 19.4812C72.064 19.5941 72.2205 19.7712 72.3405 20.0714L74.1975 19.3286ZM73.0045 17.8222C72.4391 17.4243 71.7714 17.26 71.069 17.26V19.26C71.46 19.26 71.6989 19.349 71.8535 19.4578L73.0045 17.8222ZM71.069 17.26C70.3559 17.26 69.6821 17.4228 69.101 17.8035L70.197 19.4765C70.3892 19.3505 70.6621 19.26 71.069 19.26V17.26ZM69.101 17.8035C68.5193 18.1846 68.1067 18.7319 67.8423 19.3843L69.6957 20.1357C69.8313 19.8014 70.0053 19.6021 70.197 19.4765L69.101 17.8035ZM67.8459 19.3754C67.5805 20.0125 67.469 20.7458 67.469 21.54H69.469C69.469 20.9208 69.5576 20.4675 69.6921 20.1446L67.8459 19.3754ZM67.469 21.54C67.469 22.2864 67.5754 22.9841 67.8137 23.6139L69.6843 22.9061C69.5493 22.5492 69.469 22.1002 69.469 21.54H67.469ZM67.817 23.6224C68.0726 24.2796 68.4908 24.8231 69.0743 25.2121L70.1837 23.5479C69.9672 23.4036 69.7988 23.2004 69.681 22.8976L67.817 23.6224ZM69.0743 25.2121C69.6849 25.6191 70.4157 25.78 71.189 25.78V23.78C70.6823 23.78 70.3732 23.6742 70.1837 23.5479L69.0743 25.2121ZM71.189 25.78C71.8978 25.78 72.5733 25.6437 73.148 25.2948L72.11 23.5852C71.9381 23.6896 71.6535 23.78 71.189 23.78V25.78ZM73.148 25.2948C73.6655 24.9806 74.0875 24.5465 74.3175 23.9714L72.4605 23.2286C72.4239 23.3202 72.3392 23.4461 72.11 23.5852L73.148 25.2948ZM73.389 24.6H76.329V22.6H73.389V24.6ZM75.352 23.3868C75.2249 23.9694 74.9795 24.479 74.6134 24.9287L76.1646 26.1913C76.7318 25.4944 77.1131 24.6973 77.306 23.8132L75.352 23.3868ZM74.6134 24.9287C74.2494 25.376 73.7893 25.7297 73.2165 25.989L74.0415 27.811C74.8821 27.4303 75.5953 26.8906 76.1646 26.1913L74.6134 24.9287ZM73.2165 25.989C72.6613 26.2405 71.9928 26.38 71.189 26.38V28.38C72.2252 28.38 73.1834 28.1995 74.0415 27.811L73.2165 25.989ZM78.2495 27H77.2495V28H78.2495V27ZM78.2495 16.04V15.04H77.2495V16.04H78.2495ZM80.7895 16.04H81.7895V15.04H80.7895V16.04ZM80.7895 20.74V21.74H81.7895V20.74H80.7895ZM80.7295 20.74H79.7295V21.74H80.7295V20.74ZM81.7095 17.16L80.9262 16.5383L80.9201 16.5461L81.7095 17.16ZM85.0095 15.9H86.0095V14.9H85.0095V15.9ZM85.0095 18.66V19.66H86.0095V18.66H85.0095ZM82.1695 19.38L82.8666 20.0971L82.8766 20.0871L82.1695 19.38ZM81.4495 27V28H82.4495V27H81.4495ZM79.2495 27V16.04H77.2495V27H79.2495ZM78.2495 17.04H80.7895V15.04H78.2495V17.04ZM79.7895 16.04V20.74H81.7895V16.04H79.7895ZM80.7895 19.74H80.7295V21.74H80.7895V19.74ZM81.7295 20.74C81.7295 19.3183 82.0317 18.3745 82.4988 17.7739L80.9201 16.5461C80.0806 17.6255 79.7295 19.0684 79.7295 20.74H81.7295ZM82.4928 17.7817C82.9365 17.2225 83.5835 16.9 84.5895 16.9V14.9C83.0888 14.9 81.8158 15.4175 80.9262 16.5383L82.4928 17.7817ZM84.5895 16.9H85.0095V14.9H84.5895V16.9ZM84.0095 15.9V18.66H86.0095V15.9H84.0095ZM85.0095 17.66H84.2095V19.66H85.0095V17.66ZM84.2095 17.66C83.1463 17.66 82.1809 17.9544 81.4624 18.6729L82.8766 20.0871C83.1181 19.8456 83.5127 19.66 84.2095 19.66V17.66ZM81.4724 18.663C80.7405 19.3745 80.4495 20.3503 80.4495 21.42H82.4495C82.4495 20.7031 82.6384 20.3188 82.8666 20.097L81.4724 18.663ZM80.4495 21.42V27H82.4495V21.42H80.4495ZM81.4495 26H78.2495V28H81.4495V26ZM86.7674 26.38L87.3556 25.5713L87.3556 25.5713L86.7674 26.38ZM85.3674 23.68V22.68H84.3204L84.3685 23.7259L85.3674 23.68ZM88.2074 23.68L89.1958 23.5279L89.0654 22.68H88.2074V23.68ZM88.8274 24.62L88.2135 25.4094L88.2296 25.4219L88.2462 25.4337L88.8274 24.62ZM91.8674 24.74L92.3278 25.6278L92.3397 25.6215L91.8674 24.74ZM92.0074 23.14L91.4262 23.9537L91.4393 23.9631L91.4527 23.9721L92.0074 23.14ZM90.5074 22.72L90.6179 21.7261L90.609 21.7251L90.6001 21.7243L90.5074 22.72ZM89.6474 22.64L89.5469 23.635L89.5548 23.6357L89.6474 22.64ZM86.6674 21.54L85.991 22.2766L85.9985 22.2833L86.6674 21.54ZM86.2674 17.3L87.0699 17.8967L87.0699 17.8967L86.2674 17.3ZM87.8674 16.12L87.5085 15.1866L87.5024 15.189L87.8674 16.12ZM93.6474 16.66L93.0615 17.4704L93.0698 17.4763L93.6474 16.66ZM95.0074 19.34V20.34H96.0421L96.0069 19.3059L95.0074 19.34ZM92.1674 19.34L91.1782 19.4865L91.3047 20.34H92.1674V19.34ZM91.6074 18.44L90.9867 19.224L90.997 19.2322L91.0074 19.24L91.6074 18.44ZM88.9474 19.8L89.4814 18.9545L89.4814 18.9545L88.9474 19.8ZM90.1874 20.14L90.0719 21.1333L90.0834 21.1346L90.0948 21.1357L90.1874 20.14ZM91.0474 20.22L91.1557 19.2259L91.1479 19.225L91.1401 19.2243L91.0474 20.22ZM94.1874 21.34L94.8138 20.5605L94.8138 20.5605L94.1874 21.34ZM94.7074 25.68L95.5075 26.28L95.5145 26.2705L94.7074 25.68ZM93.0074 26.92L93.3641 27.8542L93.3715 27.8514L93.3788 27.8485L93.0074 26.92ZM90.4274 26.34C88.9905 26.34 88.0049 26.0435 87.3556 25.5713L86.1793 27.1887C87.2899 27.9965 88.7444 28.34 90.4274 28.34V26.34ZM87.3556 25.5713C86.7397 25.1233 86.4068 24.5141 86.3664 23.6341L84.3685 23.7259C84.4347 25.1659 85.0352 26.3567 86.1793 27.1887L87.3556 25.5713ZM85.3674 24.68H88.2074V22.68H85.3674V24.68ZM87.2191 23.8321C87.3218 24.4999 87.7144 25.0212 88.2135 25.4094L89.4414 23.8306C89.2204 23.6588 89.1997 23.5534 89.1958 23.5279L87.2191 23.8321ZM88.2462 25.4337C88.8634 25.8746 89.6606 26.02 90.4874 26.02V24.02C89.8476 24.02 89.5382 23.8988 89.4087 23.8063L88.2462 25.4337ZM90.4874 26.02C91.1499 26.02 91.7818 25.9108 92.3278 25.6278L91.4071 23.8522C91.2331 23.9425 90.945 24.02 90.4874 24.02V26.02ZM92.3397 25.6215C92.9688 25.2844 93.4274 24.701 93.4274 23.9H91.4274C91.4274 23.9028 91.4272 23.8929 91.4324 23.875C91.4378 23.8565 91.4463 23.839 91.4554 23.8253C91.4739 23.7975 91.4736 23.8165 91.3952 23.8585L92.3397 25.6215ZM93.4274 23.9C93.4274 23.2255 93.1032 22.6686 92.5621 22.3079L91.4527 23.9721C91.4679 23.9821 91.4712 23.9865 91.4678 23.983C91.4641 23.979 91.4558 23.9692 91.4472 23.9537C91.4385 23.938 91.4328 23.9224 91.4297 23.9097C91.4268 23.8975 91.4274 23.8933 91.4274 23.9H93.4274ZM92.5887 22.3263C92.0846 21.9662 91.3588 21.8084 90.6179 21.7261L90.397 23.7139C91.0961 23.7916 91.3703 23.9138 91.4262 23.9537L92.5887 22.3263ZM90.6001 21.7243L89.7401 21.6443L89.5548 23.6357L90.4148 23.7157L90.6001 21.7243ZM89.7479 21.6451C88.5428 21.5233 87.7857 21.2011 87.3364 20.7967L85.9985 22.2833C86.8825 23.0789 88.1121 23.49 89.5469 23.6349L89.7479 21.6451ZM87.3439 20.8035C86.9086 20.4037 86.6874 19.9098 86.6874 19.24H84.6874C84.6874 20.4368 85.1197 21.4763 85.991 22.2765L87.3439 20.8035ZM86.6874 19.24C86.6874 18.6388 86.8349 18.2128 87.0699 17.8967L85.465 16.7033C84.9267 17.4272 84.6874 18.2945 84.6874 19.24H86.6874ZM87.0699 17.8967C87.3312 17.5453 87.704 17.2583 88.2325 17.051L87.5024 15.189C86.6709 15.5151 85.977 16.0147 85.465 16.7033L87.0699 17.8967ZM88.2264 17.0533C88.7862 16.8381 89.448 16.72 90.2274 16.72V14.72C89.2469 14.72 88.3354 14.8686 87.5085 15.1867L88.2264 17.0533ZM90.2274 16.72C91.4975 16.72 92.4127 17.0012 93.0615 17.4704L94.2334 15.8496C93.1489 15.0655 91.7841 14.72 90.2274 14.72V16.72ZM93.0698 17.4763C93.6519 17.8882 93.9774 18.4751 94.008 19.3741L96.0069 19.3059C95.9575 17.8583 95.3763 16.6584 94.2251 15.8437L93.0698 17.4763ZM95.0074 18.34H92.1674V20.34H95.0074V18.34ZM93.1566 19.1935C93.0607 18.5458 92.7153 18.0209 92.2074 17.64L91.0074 19.24C91.1396 19.3391 91.1675 19.4142 91.1782 19.4865L93.1566 19.1935ZM92.2281 17.656C91.6589 17.2053 90.9251 17.06 90.1874 17.06V19.06C90.7031 19.06 90.916 19.168 90.9867 19.224L92.2281 17.656ZM90.1874 17.06C89.5799 17.06 88.9783 17.1733 88.4706 17.4963L89.5443 19.1837C89.6233 19.1334 89.8083 19.06 90.1874 19.06V17.06ZM88.4706 17.4963C87.9186 17.8476 87.5674 18.4042 87.5674 19.1H89.5674C89.5674 19.0968 89.5677 19.1047 89.5637 19.1203C89.5596 19.1364 89.5526 19.1542 89.5429 19.171C89.5333 19.1876 89.5247 19.1969 89.5221 19.1996C89.5198 19.2018 89.5255 19.1957 89.5443 19.1837L88.4706 17.4963ZM87.5674 19.1C87.5674 19.74 87.8618 20.2971 88.4135 20.6455L89.4814 18.9545C89.4804 18.9539 89.513 18.9758 89.5413 19.0279C89.569 19.079 89.5674 19.1127 89.5674 19.1H87.5674ZM88.4135 20.6455C88.8634 20.9297 89.4628 21.0625 90.0719 21.1333L90.3029 19.1467C89.7654 19.0842 89.5382 18.9903 89.4814 18.9545L88.4135 20.6455ZM90.0948 21.1357L90.9548 21.2157L91.1401 19.2243L90.2801 19.1443L90.0948 21.1357ZM90.9392 21.2141C92.1713 21.3483 93.0126 21.6788 93.5611 22.1195L94.8138 20.5605C93.8689 19.8012 92.617 19.385 91.1557 19.2259L90.9392 21.2141ZM93.5611 22.1195C94.0562 22.5174 94.3074 23.0295 94.3074 23.76H96.3074C96.3074 22.4639 95.812 21.3626 94.8138 20.5605L93.5611 22.1195ZM94.3074 23.76C94.3074 24.2995 94.1645 24.7286 93.9004 25.0895L95.5145 26.2705C96.0504 25.5381 96.3074 24.6871 96.3074 23.76H94.3074ZM93.9074 25.08C93.6364 25.4415 93.2309 25.7536 92.6361 25.9915L93.3788 27.8485C94.2507 27.4997 94.9785 26.9852 95.5074 26.28L93.9074 25.08ZM92.6507 25.9858C92.0564 26.2127 91.3223 26.34 90.4274 26.34V28.34C91.5059 28.34 92.4918 28.1873 93.3641 27.8542L92.6507 25.9858ZM99.7607 26.94L99.3808 27.865L99.3879 27.8679L99.3951 27.8708L99.7607 26.94ZM97.8607 25.7L97.1444 26.3979L97.1536 26.4071L97.8607 25.7ZM96.7007 23.92L95.7697 24.2851L95.7723 24.2914L96.7007 23.92ZM96.7007 19.16L95.7734 18.7855L95.7698 18.7949L96.7007 19.16ZM97.9007 17.34L97.2026 16.6239L97.1936 16.6329L97.9007 17.34ZM99.8207 16.12L100.186 17.0508L100.194 17.0479L100.201 17.045L99.8207 16.12ZM104.841 16.12L104.455 17.0426L104.465 17.0468L104.475 17.0508L104.841 16.12ZM106.741 17.34L107.448 16.6329L107.448 16.6329L106.741 17.34ZM107.941 19.16L107.013 19.5345L107.016 19.5407L107.941 19.16ZM107.961 23.92L108.889 24.2914L108.892 24.2851L107.961 23.92ZM106.781 25.7L106.074 24.9928L106.064 25.0021L106.781 25.7ZM104.901 26.94L105.266 27.8708L105.274 27.8679L105.281 27.865L104.901 26.94ZM103.881 24.28L103.339 23.4397L103.339 23.4397L103.881 24.28ZM104.821 23.16L103.916 22.733L103.912 22.7434L103.907 22.7539L104.821 23.16ZM104.821 19.92L103.916 20.347L103.921 20.3569L104.821 19.92ZM103.841 18.78L103.28 19.6079L103.286 19.612L103.292 19.616L103.841 18.78ZM100.801 18.78L100.252 17.944L100.252 17.944L100.801 18.78ZM99.8207 19.92L98.9164 19.493L98.9113 19.5042L99.8207 19.92ZM99.8207 23.16L98.9069 23.5661L98.9069 23.5661L99.8207 23.16ZM100.781 24.28L101.311 23.432L101.311 23.432L100.781 24.28ZM102.321 26.38C101.462 26.38 100.736 26.2488 100.126 26.0092L99.3951 27.8708C100.279 28.2179 101.26 28.38 102.321 28.38V26.38ZM100.141 26.015C99.5044 25.7537 98.9855 25.4106 98.5678 24.9929L97.1536 26.4071C97.776 27.0294 98.5237 27.513 99.3808 27.865L100.141 26.015ZM98.577 25.0021C98.1607 24.5749 97.8466 24.0922 97.6292 23.5486L95.7723 24.2914C96.0881 25.0811 96.5474 25.7851 97.1445 26.3979L98.577 25.0021ZM97.6317 23.5549C97.4117 22.9938 97.3007 22.4046 97.3007 21.78H95.3007C95.3007 22.6488 95.4565 23.4862 95.7698 24.2851L97.6317 23.5549ZM97.3007 21.78V21.32H95.3007V21.78H97.3007ZM97.3007 21.32C97.3007 20.6798 97.4125 20.0841 97.6317 19.5251L95.7698 18.7949C95.4556 19.5959 95.3007 20.4402 95.3007 21.32H97.3007ZM97.628 19.5345C97.8585 18.9635 98.1844 18.4705 98.6078 18.0471L97.1936 16.6329C96.577 17.2495 96.1029 17.9698 95.7735 18.7855L97.628 19.5345ZM98.5988 18.056C99.0296 17.636 99.5541 17.2992 100.186 17.0508L99.4551 15.1892C98.594 15.5275 97.8385 16.004 97.2026 16.624L98.5988 18.056ZM100.201 17.045C100.811 16.7943 101.513 16.66 102.321 16.66V14.66C101.289 14.66 100.324 14.8324 99.4408 15.195L100.201 17.045ZM102.321 16.66C103.16 16.66 103.865 16.7958 104.455 17.0426L105.227 15.1974C104.35 14.8309 103.375 14.66 102.321 14.66V16.66ZM104.475 17.0508C105.105 17.2984 105.619 17.6329 106.034 18.0471L107.448 16.6329C106.822 16.0071 106.069 15.5283 105.206 15.1892L104.475 17.0508ZM106.034 18.0471C106.457 18.4705 106.783 18.9635 107.013 19.5345L108.868 18.7855C108.539 17.9698 108.064 17.2495 107.448 16.6329L106.034 18.0471ZM107.016 19.5407C107.245 20.0959 107.361 20.6862 107.361 21.32H109.361C109.361 20.4338 109.197 19.5841 108.865 18.7793L107.016 19.5407ZM107.361 21.32V21.78H109.361V21.32H107.361ZM107.361 21.78C107.361 22.4046 107.25 22.9938 107.03 23.5549L108.892 24.2851C109.205 23.4862 109.361 22.6488 109.361 21.78H107.361ZM107.032 23.5486C106.817 24.0865 106.5 24.5663 106.074 24.9929L107.488 26.4071C108.101 25.7937 108.571 25.0869 108.889 24.2914L107.032 23.5486ZM106.064 25.0021C105.663 25.4138 105.155 25.7544 104.521 26.015L105.281 27.865C106.14 27.5122 106.885 27.0262 107.497 26.3979L106.064 25.0021ZM104.535 26.0092C103.927 26.2482 103.195 26.38 102.321 26.38V28.38C103.393 28.38 104.381 28.2185 105.266 27.8708L104.535 26.0092ZM102.321 25.68C103.087 25.68 103.809 25.5163 104.423 25.1203L103.339 23.4397C103.126 23.577 102.807 23.68 102.321 23.68V25.68ZM104.423 25.1203C105.011 24.7409 105.448 24.2113 105.735 23.5661L103.907 22.7539C103.767 23.0687 103.577 23.2858 103.339 23.4397L104.423 25.1203ZM105.725 23.587C106.021 22.96 106.161 22.2786 106.161 21.56H104.161C104.161 22.0147 104.074 22.4 103.916 22.733L105.725 23.587ZM106.161 21.56C106.161 20.813 106.025 20.1113 105.72 19.4831L103.921 20.3569C104.069 20.662 104.161 21.0537 104.161 21.56H106.161ZM105.725 19.493C105.423 18.8535 104.976 18.3291 104.389 17.944L103.292 19.616C103.558 19.7909 103.765 20.0265 103.916 20.347L105.725 19.493ZM104.402 17.9521C103.792 17.539 103.08 17.36 102.321 17.36V19.36C102.762 19.36 103.063 19.461 103.28 19.6079L104.402 17.9521ZM102.321 17.36C101.569 17.36 100.865 17.5417 100.252 17.944L101.349 19.616C101.59 19.4583 101.899 19.36 102.321 19.36V17.36ZM100.252 17.944C99.6651 18.3291 99.2185 18.8535 98.9165 19.493L100.725 20.347C100.876 20.0265 101.083 19.7909 101.349 19.616L100.252 17.944ZM98.9113 19.5042C98.6266 20.127 98.5007 20.8209 98.5007 21.56H100.501C100.501 21.0457 100.588 20.6464 100.73 20.3358L98.9113 19.5042ZM98.5007 21.56C98.5007 22.2702 98.6305 22.9441 98.9069 23.5661L100.735 22.7539C100.584 22.4159 100.501 22.0232 100.501 21.56H98.5007ZM98.9069 23.5661C99.1975 24.2199 99.6472 24.7508 100.251 25.128L101.311 23.432C101.061 23.2759 100.871 23.0601 100.735 22.7539L98.9069 23.5661ZM100.251 25.128C100.865 25.5117 101.57 25.68 102.321 25.68V23.68C101.872 23.68 101.55 23.5816 101.311 23.432L100.251 25.128ZM110.194 27H109.194V28H110.194V27ZM110.194 16.04V15.04H109.194V16.04H110.194ZM112.734 16.04H113.734V15.04H112.734V16.04ZM112.734 20.74V21.74H113.734V20.74H112.734ZM112.554 20.74H111.554V21.74H112.554V20.74ZM112.974 17.94L112.043 17.5743L112.04 17.5816L112.038 17.5889L112.974 17.94ZM114.294 16.26L114.831 17.1037L114.831 17.1037L114.294 16.26ZM119.494 16.96L118.711 17.5817L118.716 17.5885L118.722 17.5953L119.494 16.96ZM120.514 27V28H121.514V27H120.514ZM117.314 27H116.314V28H117.314V27ZM116.794 19.12L117.527 18.4395L117.527 18.4395L116.794 19.12ZM113.934 19.14L113.215 18.4454L113.214 18.4459L113.934 19.14ZM113.394 27V28H114.394V27H113.394ZM111.194 27V16.04H109.194V27H111.194ZM110.194 17.04H112.734V15.04H110.194V17.04ZM111.734 16.04V20.74H113.734V16.04H111.734ZM112.734 19.74H112.554V21.74H112.734V19.74ZM113.554 20.74C113.554 19.6951 113.686 18.8901 113.91 18.2911L112.038 17.5889C111.702 18.4833 111.554 19.5449 111.554 20.74H113.554ZM113.905 18.3057C114.133 17.7246 114.449 17.3465 114.831 17.1037L113.757 15.4163C112.965 15.9202 112.402 16.6621 112.043 17.5743L113.905 18.3057ZM114.831 17.1037C115.226 16.8519 115.744 16.7 116.434 16.7V14.7C115.444 14.7 114.535 14.9214 113.757 15.4163L114.831 17.1037ZM116.434 16.7H116.574V14.7H116.434V16.7ZM116.574 16.7C117.615 16.7 118.271 17.0279 118.711 17.5817L120.277 16.3383C119.383 15.2121 118.093 14.7 116.574 14.7V16.7ZM118.722 17.5953C119.19 18.1648 119.514 19.1515 119.514 20.74H121.514C121.514 18.9418 121.158 17.4085 120.266 16.3247L118.722 17.5953ZM119.514 20.74V27H121.514V20.74H119.514ZM120.514 26H117.314V28H120.514V26ZM118.314 27V20.56H116.314V27H118.314ZM118.314 20.56C118.314 19.7619 118.071 19.0258 117.527 18.4395L116.061 19.8005C116.21 19.9608 116.314 20.1847 116.314 20.56H118.314ZM117.527 18.4395C116.962 17.8309 116.213 17.56 115.394 17.56V19.56C115.749 19.56 115.933 19.6625 116.061 19.8005L117.527 18.4395ZM115.394 17.56C114.557 17.56 113.799 17.8399 113.215 18.4454L114.653 19.8346C114.815 19.6667 115.031 19.56 115.394 19.56V17.56ZM113.214 18.4459C112.642 19.039 112.394 19.7983 112.394 20.62H114.394C114.394 20.215 114.506 19.9876 114.654 19.8341L113.214 18.4459ZM112.394 20.62V27H114.394V20.62H112.394ZM113.394 26H110.194V28H113.394V26ZM129.461 27H128.461V28H129.461V27ZM129.461 23.76H130.461V22.76H129.461V23.76ZM128.921 23.76H127.921V24.76H128.921V23.76ZM128.521 18.98L129.245 18.2903L129.245 18.2903L128.521 18.98ZM126.081 18.58L126.053 17.5804L126.053 17.5804L126.081 18.58ZM124.601 18.64L124.653 19.6386L124.653 19.6386L124.601 18.64ZM123.221 18.72H122.221V19.7866L123.285 19.7179L123.221 18.72ZM123.221 16.02L123.134 15.0238L122.221 15.1032V16.02H123.221ZM124.301 15.94L124.237 14.9421L124.236 14.9421L124.301 15.94ZM125.581 15.88L125.551 14.8805L125.551 14.8805L125.581 15.88ZM129.641 16.34L129.253 17.2617L129.259 17.264L129.641 16.34ZM131.401 17.8L130.548 18.3222L130.553 18.33L131.401 17.8ZM132.001 27V28H133.001V27H132.001ZM123.881 26.86L123.45 27.7625L123.458 27.7662L123.881 26.86ZM122.501 25.66L121.653 26.19L121.659 26.1997L122.501 25.66ZM122.621 21.8L123.396 22.4322L123.404 22.4222L122.621 21.8ZM124.361 20.66L124.667 21.612L124.675 21.6096L124.682 21.607L124.361 20.66ZM129.281 20.28H130.281V19.28H129.281V20.28ZM129.281 22.06V23.06H130.281V22.06H129.281ZM125.621 22.48L126.294 23.2199L126.295 23.2185L125.621 22.48ZM125.621 24.66L124.93 25.3834L124.947 25.3994L124.965 25.4146L125.621 24.66ZM127.881 24.88L128.275 25.7991L128.285 25.7949L128.295 25.7904L127.881 24.88ZM128.601 24.22L129.455 24.7399L129.455 24.7399L128.601 24.22ZM128.921 22.94L129.646 22.2513L128.036 20.5566L127.922 22.8913L128.921 22.94ZM129.681 23.74L130.677 23.8274L130.716 23.3782L130.406 23.0513L129.681 23.74ZM129.121 25.66L128.26 25.152L128.255 25.1603L128.25 25.1687L129.121 25.66ZM127.881 26.86L127.416 25.9746L127.407 25.9795L127.881 26.86ZM130.461 27V23.76H128.461V27H130.461ZM129.461 22.76H128.921V24.76H129.461V22.76ZM129.921 23.76V20.24H127.921V23.76H129.921ZM129.921 20.24C129.921 19.5377 129.755 18.8253 129.245 18.2903L127.797 19.6697C127.821 19.6947 127.921 19.8223 127.921 20.24H129.921ZM129.245 18.2903C128.711 17.7295 127.961 17.56 127.241 17.56V19.56C127.459 19.56 127.602 19.5865 127.689 19.6152C127.771 19.642 127.794 19.6672 127.797 19.6697L129.245 18.2903ZM127.241 17.56C126.934 17.56 126.537 17.5669 126.053 17.5804L126.109 19.5796C126.584 19.5664 126.961 19.56 127.241 19.56V17.56ZM126.053 17.5804C125.564 17.594 125.063 17.6143 124.548 17.6414L124.653 19.6386C125.152 19.6124 125.637 19.5927 126.109 19.5796L126.053 17.5804ZM124.548 17.6414C124.039 17.6682 123.575 17.6951 123.157 17.7221L123.285 19.7179C123.694 19.6916 124.15 19.6651 124.653 19.6386L124.548 17.6414ZM124.221 18.72V16.02H122.221V18.72H124.221ZM123.308 17.0162C123.605 16.9904 123.957 16.9643 124.365 16.9379L124.236 14.9421C123.818 14.9691 123.45 14.9963 123.134 15.0238L123.308 17.0162ZM124.365 16.9379C124.767 16.912 125.182 16.8926 125.611 16.8795L125.551 14.8805C125.1 14.8941 124.662 14.9146 124.237 14.9421L124.365 16.9379ZM125.611 16.8795C126.042 16.8665 126.446 16.86 126.821 16.86V14.86C126.423 14.86 125.999 14.8669 125.551 14.8805L125.611 16.8795ZM126.821 16.86C127.852 16.86 128.651 17.0083 129.253 17.2616L130.029 15.4184C129.111 15.0317 128.029 14.86 126.821 14.86V16.86ZM129.259 17.264C129.856 17.5111 130.269 17.866 130.548 18.3222L132.254 17.2778C131.733 16.4274 130.973 15.8089 130.023 15.416L129.259 17.264ZM130.553 18.33C130.825 18.7654 131.001 19.3917 131.001 20.28H133.001C133.001 19.1416 132.777 18.1146 132.249 17.27L130.553 18.33ZM131.001 20.28V27H133.001V20.28H131.001ZM132.001 26H129.461V28H132.001V26ZM125.961 26.28C125.293 26.28 124.749 26.1615 124.304 25.9538L123.458 27.7662C124.213 28.1185 125.055 28.28 125.961 28.28V26.28ZM124.312 25.9575C123.884 25.7534 123.57 25.4751 123.343 25.1203L121.659 26.1997C122.098 26.8849 122.705 27.4066 123.45 27.7625L124.312 25.9575ZM123.349 25.13C123.13 24.7805 123.001 24.3376 123.001 23.76H121.001C121.001 24.6491 121.205 25.4729 121.653 26.19L123.349 25.13ZM123.001 23.76C123.001 23.1372 123.158 22.723 123.396 22.4321L121.846 21.1679C121.257 21.8903 121.001 22.7828 121.001 23.76H123.001ZM123.404 22.4222C123.673 22.0831 124.074 21.8027 124.667 21.612L124.055 19.708C123.155 19.9973 122.395 20.4769 121.838 21.1778L123.404 22.4222ZM124.682 21.607C125.304 21.3959 126.052 21.28 126.941 21.28V19.28C125.883 19.28 124.911 19.4175 124.04 19.713L124.682 21.607ZM126.941 21.28H129.281V19.28H126.941V21.28ZM128.281 20.28V22.06H130.281V20.28H128.281ZM129.281 21.06H126.921V23.06H129.281V21.06ZM126.921 21.06C126.2 21.06 125.494 21.242 124.947 21.7415L126.295 23.2185C126.361 23.158 126.522 23.06 126.921 23.06V21.06ZM124.948 21.7401C124.409 22.2301 124.181 22.8862 124.181 23.58H126.181C126.181 23.3405 126.246 23.2632 126.294 23.2199L124.948 21.7401ZM124.181 23.58C124.181 24.2675 124.421 24.8975 124.93 25.3834L126.311 23.9366C126.234 23.8625 126.181 23.7725 126.181 23.58H124.181ZM124.965 25.4146C125.512 25.8905 126.211 26.06 126.921 26.06V24.06C126.511 24.06 126.343 23.9628 126.277 23.9054L124.965 25.4146ZM126.921 26.06C127.392 26.06 127.85 25.9813 128.275 25.7991L127.487 23.9609C127.352 24.0187 127.17 24.06 126.921 24.06V26.06ZM128.295 25.7904C128.791 25.5647 129.176 25.1976 129.455 24.7399L127.747 23.7001C127.652 23.8557 127.557 23.9287 127.467 23.9696L128.295 25.7904ZM129.455 24.7399C129.762 24.2352 129.889 23.622 129.92 22.9887L127.922 22.8913C127.9 23.3513 127.813 23.5915 127.747 23.7001L129.455 24.7399ZM128.196 23.6287L128.956 24.4287L130.406 23.0513L129.646 22.2513L128.196 23.6287ZM128.685 23.6526C128.628 24.3021 128.473 24.7897 128.26 25.152L129.982 26.168C130.382 25.4903 130.601 24.6979 130.677 23.8274L128.685 23.6526ZM128.25 25.1687C128.052 25.5194 127.78 25.7833 127.416 25.9746L128.346 27.7454C129.048 27.3767 129.603 26.8406 129.992 26.1513L128.25 25.1687ZM127.407 25.9795C127.068 26.1618 126.602 26.28 125.961 26.28V28.28C126.84 28.28 127.653 28.1182 128.355 27.7405L127.407 25.9795ZM134.456 27H133.456V28H134.456V27ZM134.456 12.4V11.4H133.456V12.4H134.456ZM137.676 12.4H138.676V11.4H137.676V12.4ZM137.676 27V28H138.676V27H137.676ZM133.156 14.76H132.156V15.76H133.156V14.76ZM133.156 12.4V11.4H132.156V12.4H133.156ZM137.676 12.4H138.676V11.4H137.676V12.4ZM137.676 14.76V15.76H138.676V14.76H137.676ZM135.456 27V12.4H133.456V27H135.456ZM134.456 13.4H137.676V11.4H134.456V13.4ZM136.676 12.4V27H138.676V12.4H136.676ZM137.676 26H134.456V28H137.676V26ZM134.156 14.76V12.4H132.156V14.76H134.156ZM133.156 13.4H137.676V11.4H133.156V13.4ZM136.676 12.4V14.76H138.676V12.4H136.676ZM137.676 13.76H133.156V15.76H137.676V13.76Z" fill="black" mask="url(#path-3-outside-1_312_328)"/>
<defs>
<clipPath id="clip0_312_328">
<rect width="39.9059" height="40" fill="white"/>
</clipPath>
</defs>
</svg>
