<svg width="222" height="227" viewBox="0 0 222 227" fill="none" xmlns="http://www.w3.org/2000/svg">
<path d="M5.6376 0C2.33147 0.443361 -0.0532902 2.52522 0.000905294 4.93478V222.065C0.000905294 224.783 3.11735 227 6.93838 227H215.063C218.884 227 222 224.783 222 222.065V4.93478C222 2.2168 218.884 0 215.063 0H6.93838C6.72158 0 6.50479 0 6.28799 0C6.07119 0 5.8544 0 5.6376 0ZM13.8758 9.86957H208.125V217.13H13.8758V9.86957ZM97.9927 39.9409C75.744 40.3457 53.4953 41.9842 32.5203 47.0346L37.2898 51.9694C55.04 47.5358 75.9879 45.3576 98.2095 44.8757C106.637 44.7022 115.391 44.7022 123.791 44.8757C146.013 45.3576 166.961 47.5358 184.711 51.9694L189.481 47.0346C168.506 41.9842 146.257 40.3457 124.008 39.9409C115.391 39.7867 106.583 39.7867 97.9927 39.9409ZM89.9712 50.5815C75.0936 50.8707 54.6877 52.1815 40.9753 56.1332C43.4956 59.5451 54.4709 64.4606 60.487 65.5401C60.8393 58.8319 74.1451 57.3668 86.9361 57.3668L111 148.815L135.065 57.3668C147.856 57.3668 161.162 58.8319 161.514 65.5401C167.557 64.4606 178.505 59.5451 181.026 56.1332C162.733 50.8707 132.572 50.2345 119.455 50.5815L111 58.2921L102.545 50.5815C99.2664 50.4851 94.9305 50.4851 89.9712 50.5815ZM29.9188 173.026C30.3794 174.414 32.1138 175.667 34.2547 176.264H40.7586L40.9753 176.418V188.91H45.0945V176.418L45.3113 176.264H52.0319C54.1728 175.667 55.6904 174.414 56.1511 173.026H29.9188ZM101.461 173.026V182.433H119.889V185.671H105.581C103.467 186.288 101.895 187.368 101.461 188.755V188.91H124.008V179.349H105.364V176.264H119.672C121.813 175.802 123.358 174.414 123.791 173.026H101.461ZM135.498 173.026V188.755H153.709C155.715 188.1 156.772 186.982 157.178 185.671H139.401V173.026H135.498ZM65.9069 173.18C66.3405 174.568 68.0748 175.647 70.2428 176.264H85.6353C87.8033 175.647 89.2938 174.568 89.7544 173.18H65.9069ZM168.235 173.18C168.668 174.568 170.186 175.647 172.354 176.264H187.963C190.131 175.647 191.649 174.568 192.082 173.18H168.235ZM65.9069 179.194C66.3405 180.563 68.0748 181.835 70.2428 182.433H85.6353C87.8033 181.835 89.2938 180.563 89.7544 179.194H65.9069ZM168.885 179.194V188.755H173.004V182.433H187.529V188.755H191.432V179.194H168.885ZM65.9069 185.671C66.3405 187.059 68.0748 188.139 70.2428 188.755H85.6353C87.8033 188.139 89.2938 187.059 89.7544 185.671H65.9069Z" fill="white"/>
</svg>
