<svg width="148" height="162" viewBox="0 0 148 162" fill="none" xmlns="http://www.w3.org/2000/svg">
<path d="M15.096 69.809C14.8254 69.809 14.7584 69.6622 14.8925 69.4395L16.31 67.4423C16.4442 67.2196 16.7818 67.0728 17.0524 67.0728H41.1694C41.44 67.0728 41.507 67.2955 41.3729 67.5157L40.2236 69.4395C40.0895 69.6622 39.7519 69.8824 39.5484 69.8824L15.096 69.809Z" fill="#161717"/>
<path d="M4.89554 76.613C4.62498 76.613 4.55791 76.4662 4.69204 76.2434L6.1096 74.2463C6.24373 74.0235 6.58135 73.8767 6.85191 73.8767H37.6567C37.9273 73.8767 38.0614 74.0995 37.9944 74.3197L37.4532 76.0941C37.3862 76.3902 37.1156 76.537 36.845 76.537L4.89554 76.613Z" fill="black"/>
<path d="M21.2426 83.4147C20.972 83.4147 20.905 83.1919 21.0391 82.9717L21.9849 81.1239C22.119 80.9011 22.3896 80.6809 22.6601 80.6809H36.1721C36.4426 80.6809 36.5768 80.9037 36.5768 81.1973L36.4426 82.9717C36.4426 83.2678 36.1721 83.4881 35.9709 83.4881L21.2426 83.4147Z" fill="black"/>
<path d="M93.1392 59.0497C88.8842 60.2318 85.9774 61.1203 81.7895 62.3024C80.7766 62.5986 80.7095 62.672 79.8308 61.5633C78.8179 60.3052 78.0733 59.4927 76.6557 58.7536C72.4007 56.4603 68.2799 57.126 64.4272 59.8623C59.8346 63.1149 57.4689 67.9218 57.536 73.9107C57.603 79.8262 61.3192 84.7065 66.6565 85.519C71.2491 86.1847 75.1017 84.4103 78.1404 80.6388C78.7485 79.8262 79.2897 78.9378 79.9649 77.9025C77.5322 77.9025 74.4935 77.9025 66.927 77.9025C65.5095 77.9025 65.1695 76.9406 65.6436 75.6851C66.5224 73.3918 68.1434 69.5468 69.0892 67.6256C69.2927 67.1826 69.7645 66.4435 70.7774 66.4435C74.223 66.4435 86.9232 66.4435 95.3685 66.4435C95.2344 68.4407 95.2344 70.4378 94.9638 72.4325C94.2215 77.7557 92.3969 82.6359 89.4254 86.9264C84.5622 93.9506 78.212 98.3145 70.1715 99.4966C63.5508 100.458 57.4042 99.0536 51.9999 94.6163C47.0002 90.4752 44.1628 85.0026 43.4205 78.2012C42.5417 70.1417 44.7039 62.8947 49.1624 56.5362C53.9585 49.6588 60.3087 45.2975 68.0787 43.7433C74.4288 42.4852 80.5084 43.3003 85.9797 47.3655C89.5595 49.9524 92.1264 53.5038 93.8168 57.7917C94.2192 58.46 93.9486 58.8295 93.1392 59.0497Z" fill="black"/>
<path d="M115.499 99.942C109.352 99.7952 103.744 97.8714 99.0153 93.4342C95.0285 89.6626 92.531 84.8558 91.7193 79.163C90.503 70.8073 92.5981 63.4135 97.1907 56.8323C102.123 49.7347 108.066 46.0365 116.107 44.4823C122.998 43.1509 129.482 43.89 135.361 48.2539C140.698 52.2482 144.007 57.6448 144.886 64.745C146.035 74.7282 143.399 82.8611 137.116 89.8119C132.658 94.7656 127.186 97.8714 120.903 99.2763C119.079 99.6458 117.256 99.7218 115.499 99.942ZM131.578 70.0682C131.511 69.1063 131.511 68.3672 131.374 67.6281C130.158 60.3077 124.011 56.1666 117.594 57.7942C111.311 59.3458 107.257 63.7097 105.772 70.6605C104.556 76.4292 107.123 82.2688 111.988 84.6355C115.705 86.4099 119.418 86.1872 123.001 84.1926C128.335 81.1601 131.24 76.4267 131.578 70.0682Z" fill="black"/>
</svg>
