<svg width="84" height="84" viewBox="0 0 84 84" fill="none" xmlns="http://www.w3.org/2000/svg">
<path d="M46.1666 0.333249C30.6718 0.333249 26.6516 12.1171 25.3007 18.953C27.1562 18.1555 31.7297 16.9999 33.6666 16.9999H33.748C38.5168 17.0325 39.998 18.3834 40.9583 22.7942C41.6581 26.0331 42.0162 31.0787 41.9999 33.6666C41.9836 39.3306 40.6165 43.2369 39.6073 45.8573L39.2818 46.7037C39.0377 47.4036 38.7447 48.0546 38.4843 48.6568C38.2239 49.2916 37.996 49.845 37.8333 50.3332C38.8424 50.5611 39.6399 50.8866 40.177 51.1145L40.4862 51.261C40.5839 51.3098 40.6816 51.3424 40.7629 51.4075C42.537 52.4817 41.9999 54.9556 41.9999 56.9088C41.9999 58.5364 42.0487 65.0142 41.9999 71.1829C42.179 73.8521 42.8625 76.0982 43.4485 77.7421C44.3111 80.0533 46.248 83.4875 50.3333 83.6666C53.5559 83.8131 58.2109 82.1204 58.6666 75.3495V58.6829C58.9758 53.1165 65.356 50.9029 66.9999 49.6822C66.7721 49.373 65.8931 46.6549 64.9654 45.2063L64.7864 44.8645C64.6562 44.539 64.3144 43.953 63.8912 43.1718C61.4335 38.7122 56.2903 27.2701 59.8059 21.4107C61.3359 18.8391 62.8332 17.358 66.9999 16.9999C65.3072 12.1659 60.6197 0.57739 46.1666 0.333249ZM18.8228 0.333249C11.0266 0.626219 0.333252 5.4602 0.333252 21.2154C0.333252 31.8925 7.59237 62.8332 19.0507 62.8332C19.5715 62.8332 20.0924 62.6542 20.6295 62.3775C19.6204 61.4986 18.8879 60.3593 18.7903 58.8619C18.6112 55.8346 20.8085 53.7024 25.5448 52.498C25.7727 52.4654 26.9771 52.1073 29.6301 50.6099C28.2304 50.0077 26.7655 49.1939 25.5611 47.9407C22.2571 44.4901 20.5806 39.6562 21.1991 35.3105C21.7851 31.0787 21.4433 26.9283 21.2642 24.7148L21.248 24.5032L21.1991 23.7707L21.1015 22.2408L21.2317 18.1392C22.5826 11.2056 25.4146 5.83455 29.4999 2.12362C26.4075 1.1145 22.5175 0.20304 18.8228 0.333249ZM62.5566 0.349524C61.759 0.365803 61.0103 0.430907 60.2779 0.512286C64.4609 3.4257 68.302 8.12947 70.9224 15.6327L71.1015 21.3619C71.1178 21.5572 71.1503 21.7525 71.1829 21.9478C71.3131 22.664 71.4758 23.6405 71.3456 24.8124C71.1829 26.1471 71.0201 27.5142 70.9713 28.8814C70.9387 30.2323 71.1178 31.5507 71.3131 32.9504C71.6711 35.4407 71.4758 37.9635 70.6946 40.6653L69.4739 44.8645C69.7994 45.5806 70.1086 46.3131 70.4179 47.078C70.483 47.2734 70.5481 47.4198 70.5969 47.55L71.9641 49.4381C79.3209 42.9602 83.6666 29.4023 83.6666 15.4374C83.6666 12.7356 82.9342 10.6523 81.9901 9.44783C76.4075 2.30265 68.6763 0.25187 62.5566 0.349524ZM33.6666 21.1666C32.4947 21.1666 28.4583 22.1269 26.9283 22.7779L25.4309 23.4127C25.3984 23.4452 25.3658 23.4778 25.3495 23.5103C25.3658 23.7382 25.3984 24.0149 25.4309 24.3567C25.6099 26.7493 25.968 31.1926 25.317 35.8964C24.8775 38.9888 26.1308 42.5045 28.5885 45.0598C29.9882 46.5247 32.4947 47.4849 34.3176 47.8918C34.4316 47.5989 34.5292 47.3547 34.6594 47.0292C34.8873 46.4758 35.1477 45.8899 35.3918 45.2388L35.7174 44.3599C36.4498 42.4556 37.817 38.8912 37.8333 33.6503C37.8495 31.925 37.6542 28.7838 37.2961 26.0982C37.2473 26.1633 37.2148 26.1633 37.1822 26.2447C36.5637 26.8632 35.6034 27.4166 34.5455 27.2538C32.8202 26.9771 31.5019 24.8775 31.5833 24.0963C31.6809 23.3313 33.162 22.9244 34.8873 23.2011C35.4732 23.2987 36.0266 23.4778 36.4823 23.6731C36.6451 23.8033 36.7753 23.8847 36.9218 23.9823C36.9055 23.8847 36.9055 23.7707 36.873 23.6731C36.4823 21.8339 36.1568 21.4921 36.1405 21.4758C36.1243 21.4596 35.6848 21.1829 33.6666 21.1666ZM66.9348 21.2154C64.9166 21.4596 64.3469 21.9967 63.6145 23.1848C65.0305 23.1848 66.0559 23.6568 66.1698 24.5357C66.2838 25.2844 65.649 26.0006 65.3723 26.2773C64.7864 26.8306 64.054 27.205 63.3215 27.2864C63.1913 27.3189 63.0611 27.3189 62.9146 27.3189C62.8821 27.3189 62.8658 27.3026 62.8332 27.3026C63.0774 30.7369 64.6236 35.3756 66.6907 39.5097C67.2603 37.524 67.4882 35.5872 67.1952 33.5364C66.9836 32.0227 66.7558 30.4602 66.8046 28.7512C66.8697 27.205 67.0325 25.7564 67.1952 24.3404C67.3254 23.2499 66.9023 22.2408 66.9348 21.2154ZM76.0819 52.5468C75.7564 52.498 75.3007 52.5305 74.7473 52.6445C72.1269 53.1816 70.3853 53.328 69.0995 53.2467C68.6438 53.5559 68.1718 53.8489 67.5859 54.1744C65.2421 55.4602 63.1588 56.7948 62.8821 58.6666V61.0917C65.6327 61.2219 69.3111 59.5129 71.427 58.5364C75.4146 56.6972 78.4094 52.856 76.0819 52.5468ZM32.983 53.5071C30.6881 54.8743 28.1002 56.2252 26.3749 56.5832C20.2551 58.2109 24.0474 60.1151 26.2122 60.3267C28.5234 60.8964 34.1874 62.1822 37.8333 59.2037C37.8333 59.2037 37.8333 59.2037 37.8333 59.1874V56.9088C37.8333 56.4693 37.8495 56.0299 37.8821 55.5579C37.8821 55.3137 37.8984 54.9882 37.8984 54.6952C37.6217 54.5813 37.2799 54.4836 36.9055 54.386L32.983 53.5071Z" fill="black"/>
</svg>
