<svg width="100" height="100" viewBox="0 0 100 100" fill="none" xmlns="http://www.w3.org/2000/svg">
<path d="M43.3333 10C35.97 10 30 15.97 30 23.3333V26.6667H46.6667C48.5067 26.6667 50 28.16 50 30C50 31.84 48.5067 33.3333 46.6667 33.3333H30H26.6667H23.3333C15.97 33.3333 10 39.3033 10 46.6667V60C10 67.3633 15.97 73.3333 23.3333 73.3333H26.6667V56.6667C26.6667 51.1533 31.1533 46.6667 36.6667 46.6667H63.3333C65.1733 46.6667 66.6667 45.1733 66.6667 43.3333V23.3333C66.6667 15.97 60.6967 10 53.3333 10H43.3333ZM40 16.6667C41.84 16.6667 43.3333 18.16 43.3333 20C43.3333 21.84 41.84 23.3333 40 23.3333C38.16 23.3333 36.6667 21.84 36.6667 20C36.6667 18.16 38.16 16.6667 40 16.6667ZM73.3333 26.6667V43.3333C73.3333 48.8467 68.8467 53.3333 63.3333 53.3333H36.6667C34.8267 53.3333 33.3333 54.8267 33.3333 56.6667V76.6667C33.3333 84.03 39.3033 90 46.6667 90H56.6667C64.03 90 70 84.03 70 76.6667V73.3333H53.3333C51.4933 73.3333 50 71.84 50 70C50 68.16 51.4933 66.6667 53.3333 66.6667H70H73.3333H76.6667C84.03 66.6667 90 60.6967 90 53.3333V40C90 32.6367 84.03 26.6667 76.6667 26.6667H73.3333ZM60 76.6667C61.84 76.6667 63.3333 78.16 63.3333 80C63.3333 81.84 61.84 83.3333 60 83.3333C58.16 83.3333 56.6667 81.84 56.6667 80C56.6667 78.16 58.16 76.6667 60 76.6667Z" fill="black"/>
</svg>
