<svg width="84" height="84" viewBox="0 0 84 84" fill="none" xmlns="http://www.w3.org/2000/svg">
<path d="M79.8416 41.9999L83.6666 37.8958L79.1145 34.6166L82.0645 29.8458L76.9603 27.5187L78.9228 22.2645L73.4624 20.977L74.3624 15.4395L68.7562 15.2416L68.5583 9.63534L63.0207 10.5353L61.7332 5.07492L56.4791 7.03742L54.152 1.93325L49.3812 4.88325L46.1041 0.333252L41.9999 4.15825L37.8958 0.333252L34.6166 4.88533L29.8458 1.93534L27.5187 7.0395L22.2645 5.077L20.977 10.5374L15.4395 9.63742L15.2416 15.2437L9.63534 15.4416L10.5353 20.9791L5.07492 22.2666L7.03742 27.5207L1.93325 29.8478L4.88325 34.6187L0.333252 37.8958L4.15825 41.9999L0.333252 46.1041L4.88533 49.3833L1.93534 54.1541L7.0395 56.4812L5.077 61.7353L10.5374 63.0228L9.63742 68.5603L15.2437 68.7583L15.4416 74.3645L20.9791 73.4645L22.2666 78.9249L27.5207 76.9624L29.8478 82.0666L34.6187 79.1166L37.8958 83.6666L41.9999 79.8416L46.1041 83.6666L49.3833 79.1145L54.1541 82.0645L56.4812 76.9603L61.7353 78.9228L63.0228 73.4624L68.5603 74.3624L68.7583 68.7562L74.3645 68.5583L73.4645 63.0207L78.9249 61.7332L76.9624 56.4791L82.0666 54.152L79.1166 49.3812L83.6666 46.1041L79.8416 41.9999ZM41.9999 6.58325C43.1499 6.58325 44.0833 7.51659 44.0833 8.66658C44.0833 9.81658 43.1499 10.7499 41.9999 10.7499C40.8499 10.7499 39.9166 9.81658 39.9166 8.66658C39.9166 7.51659 40.8499 6.58325 41.9999 6.58325ZM10.7499 29.4999C11.8999 29.4999 12.8333 30.4333 12.8333 31.5833C12.8333 32.7333 11.8999 33.6666 10.7499 33.6666C9.59992 33.6666 8.66658 32.7333 8.66658 31.5833C8.66658 30.4333 9.59992 29.4999 10.7499 29.4999ZM10.3499 52.4166C9.27075 49.1374 8.66658 45.6416 8.66658 41.9999C8.66658 40.5333 8.79367 39.0999 8.977 37.6832L14.6166 34.6624C15.7624 34.0499 16.3333 32.7978 16.1541 31.5833H19.0833V52.4166H10.3499ZM23.2499 71.1666C22.0999 71.1666 21.1666 70.2332 21.1666 69.0832C21.1666 67.9332 22.0999 66.9999 23.2499 66.9999C24.3999 66.9999 25.3333 67.9332 25.3333 69.0832C25.3333 70.2332 24.3999 71.1666 23.2499 71.1666ZM60.7499 71.1666C59.5999 71.1666 58.6666 70.2332 58.6666 69.0832C58.6666 67.9332 59.5999 66.9999 60.7499 66.9999C61.8999 66.9999 62.8332 67.9332 62.8332 69.0832C62.8332 70.2332 61.8999 71.1666 60.7499 71.1666ZM65.8416 65.2728L59.3583 64.2374C57.7249 63.977 56.1895 65.0895 55.9291 66.7228L54.9728 72.7166C50.9853 74.3999 46.602 75.3332 41.9999 75.3332C37.2999 75.3332 32.8332 74.3499 28.7791 72.5958L27.8833 66.9874C27.6228 65.3541 26.0874 64.2416 24.4541 64.502L18.3458 65.477C16.9062 64.027 15.5978 62.4437 14.4437 60.7478H41.8978V52.4145H33.6666V46.1645H39.6499C51.0541 46.1645 41.7062 60.7478 56.8312 60.7478H69.5562C68.452 62.3687 67.2041 63.877 65.8416 65.2728ZM34.1624 37.8333V31.5833H44.9916C46.6999 31.5833 48.0853 32.9687 48.0853 34.677V34.7395C48.0853 36.4478 46.6999 37.8333 44.9916 37.8333H34.1624ZM75.1812 44.9916H69.7416V47.5582C69.7416 50.4124 67.9624 52.4166 65.8999 52.4166C60.5937 52.4166 62.0353 45.0478 55.5812 41.8333C60.3978 41.0395 64.0895 36.7708 64.0895 31.5833C64.0895 25.8312 59.5645 21.1666 53.9833 21.1666H41.8958H24.8791H15.9999C20.7333 15.2666 27.4228 11.0083 35.0958 9.39158L39.8812 14.177C41.0499 15.3458 42.9457 15.3458 44.1145 14.177L48.8999 9.39158C58.5666 11.4291 66.6916 17.6458 71.2832 26.0728L68.852 30.6103C68.0707 32.0687 68.6208 33.8833 70.077 34.6624L74.9562 37.2749C75.1812 38.8228 75.3332 40.3916 75.3332 41.9999C75.3332 43.0103 75.2707 44.0041 75.1812 44.9916ZM73.2499 33.6666C72.0999 33.6666 71.1666 32.7333 71.1666 31.5833C71.1666 30.4333 72.0999 29.4999 73.2499 29.4999C74.3999 29.4999 75.3332 30.4333 75.3332 31.5833C75.3332 32.7333 74.3999 33.6666 73.2499 33.6666Z" fill="black"/>
</svg>
